<svg width="41" height="48" viewBox="0 0 41 48" fill="none" xmlns="http://www.w3.org/2000/svg">
<path d="M38.7722 5.1372L20.9959 0.0679222L20.9584 0.0577972C20.6586 -0.0192657 20.3417 -0.0192657 20.042 0.0577972L20.0232 0.0625784L2.22796 5.1372C0.915128 5.48501 0 6.65089 0 7.98009V32.7093C0 35.9563 1.83669 38.8835 4.79654 40.3606L16.437 47.0361L16.5179 47.0791C17.7647 47.6931 19.1324 48 20.5 48C21.8675 48 23.2352 47.6931 24.482 47.0791L24.5231 47.0588L36.2035 40.3607C39.1634 38.8836 41 35.9563 41 32.7094V7.98018C41.0002 6.65108 40.0852 5.48501 38.7722 5.1372ZM24.8484 17.4024C24.8484 17.2117 24.9461 17.0665 25.1417 16.9668C25.3371 16.8673 25.5708 16.8176 25.843 16.8176C26.1151 16.8176 26.3487 16.8673 26.5444 16.9668C26.7398 17.0665 26.8376 17.2116 26.8376 17.4024V24.2204H29.745C29.9235 24.2204 30.0638 24.3034 30.1658 24.4692C30.2678 24.6352 30.3188 24.8343 30.3188 25.0663C30.3188 25.2987 30.2678 25.4977 30.1658 25.6635C30.0637 25.8295 29.9235 25.9123 29.745 25.9123H25.7155C25.4774 25.9123 25.2734 25.8606 25.1035 25.7568C24.9333 25.6533 24.8484 25.506 24.8484 25.3151V17.4024ZM21.463 22.8019C21.1867 22.5948 20.851 22.4059 20.4557 22.2359C20.0604 22.0659 19.6629 21.875 19.2634 21.6636C18.8638 21.4521 18.5259 21.1517 18.2497 20.7616C17.9734 20.3719 17.8353 19.9075 17.8353 19.3682C17.8353 18.489 18.154 17.8317 18.7916 17.3963C19.4292 16.9608 20.1984 16.743 21.0997 16.743C21.3207 16.743 21.5524 16.756 21.7946 16.7816C22.0369 16.8072 22.3089 16.8564 22.6107 16.929C22.9124 17.0018 23.159 17.1192 23.3503 17.2815C23.5415 17.444 23.6372 17.6406 23.6372 17.8711C23.6372 18.0904 23.567 18.3179 23.4267 18.5538C23.2866 18.7899 23.093 18.9077 22.8466 18.9077C22.7445 18.9077 22.5279 18.8291 22.1963 18.6714C21.8648 18.5139 21.4992 18.435 21.0996 18.435C20.6744 18.435 20.3556 18.5077 20.1433 18.6527C19.9307 18.798 19.8246 18.9743 19.8246 19.1815C19.8246 19.3724 19.9244 19.5466 20.1243 19.704C20.3239 19.8616 20.5726 19.9964 20.8702 20.1083C21.1677 20.2202 21.4928 20.3655 21.8456 20.5438C22.1983 20.7222 22.5234 20.917 22.8211 21.1285C23.1186 21.34 23.3672 21.6366 23.567 22.018C23.7667 22.3996 23.8667 22.835 23.8667 23.3244C23.8667 24.1797 23.5735 24.8455 22.9869 25.3221C22.4003 25.7986 21.6308 26.0367 20.6788 26.0367C19.8542 26.0367 19.1359 25.8709 18.5237 25.539C17.9117 25.2074 17.6056 24.8341 17.6056 24.4193C17.6056 24.1872 17.6927 23.955 17.867 23.7226C18.0412 23.4904 18.2432 23.3742 18.4727 23.3742C18.6002 23.3742 18.7425 23.4245 18.8999 23.525C19.0571 23.6257 19.2015 23.7371 19.3335 23.8594C19.4652 23.9819 19.6501 24.0932 19.8882 24.1937C20.1261 24.2944 20.3769 24.3445 20.6405 24.3445C20.972 24.3445 21.261 24.2761 21.5076 24.1393C21.7541 24.0024 21.8774 23.7972 21.8774 23.5234C21.8774 23.2497 21.7392 23.0094 21.463 22.8019ZM14.6665 22.8019C14.3902 22.5948 14.0545 22.4059 13.6592 22.2359C13.2639 22.0659 12.8665 21.875 12.4669 21.6636C12.0673 21.4521 11.7294 21.1517 11.4532 20.7616C11.1769 20.3719 11.0388 19.9075 11.0388 19.3682C11.0388 18.489 11.3575 17.8317 11.9951 17.3963C12.6327 16.9608 13.4019 16.743 14.3032 16.743C14.5242 16.743 14.7559 16.756 14.9981 16.7816C15.2404 16.8072 15.5124 16.8564 15.8142 16.929C16.1159 17.0018 16.3626 17.1192 16.5538 17.2815C16.745 17.444 16.8407 17.6406 16.8407 17.8711C16.8407 18.0904 16.7705 18.3179 16.6303 18.5538C16.4901 18.7899 16.2966 18.9077 16.0501 18.9077C15.948 18.9077 15.7314 18.8291 15.3998 18.6714C15.0683 18.5139 14.7027 18.435 14.3031 18.435C13.878 18.435 13.5591 18.5077 13.3468 18.6527C13.1343 18.798 13.0281 18.9743 13.0281 19.1815C13.0281 19.3724 13.1279 19.5466 13.3278 19.704C13.5274 19.8616 13.7761 19.9964 14.0737 20.1083C14.3712 20.2202 14.6963 20.3655 15.0492 20.5438C15.4018 20.7222 15.727 20.917 16.0246 21.1285C16.3221 21.34 16.5707 21.6366 16.7705 22.018C16.9702 22.3996 17.0702 22.835 17.0702 23.3244C17.0702 24.1797 16.777 24.8455 16.1904 25.3221C15.6039 25.7986 14.8343 26.0367 13.8823 26.0367C13.0577 26.0367 12.3394 25.8709 11.7273 25.539C11.1152 25.2074 10.8092 24.8341 10.8092 24.4193C10.8092 24.1872 10.8962 23.955 11.0705 23.7226C11.2447 23.4904 11.4467 23.3742 11.6762 23.3742C11.8037 23.3742 11.946 23.4245 12.1034 23.525C12.2606 23.6257 12.4051 23.7371 12.537 23.8594C12.6687 23.9819 12.8536 24.0932 13.0917 24.1937C13.3296 24.2944 13.5804 24.3445 13.844 24.3445C14.1755 24.3445 14.4645 24.2761 14.7111 24.1393C14.9576 24.0024 15.081 23.7972 15.081 23.5234C15.081 23.2497 14.9427 23.0094 14.6665 22.8019ZM29.5037 30.5913H11.4966C10.7007 30.5913 10.0554 29.9617 10.0554 29.185C10.0554 28.4084 10.7007 27.7788 11.4966 27.7788H29.5037C30.2997 27.7788 30.945 28.4084 30.945 29.185C30.945 29.9617 30.2997 30.5913 29.5037 30.5913Z" fill="white"/>
</svg>
